<?xml version="1.0" standalone="no"?>
<!DOCTYPE svg PUBLIC "-//W3C//DTD SVG 20010904//EN"
 "http://www.w3.org/TR/2001/REC-SVG-20010904/DTD/svg10.dtd">
<svg version="1.0" xmlns="http://www.w3.org/2000/svg"
 width="70.000000pt" height="70.000000pt" viewBox="0 0 70.000000 70.000000"
 preserveAspectRatio="xMidYMid meet">
<metadata>
Created by potrace 1.11, written by Peter Selinger 2001-2013
</metadata>
<g transform="translate(0.000000,70.000000) scale(0.100000,-0.100000)"
fill="#000000" stroke="none">
<path d="M220 481 l0 -121 -25 0 c-20 0 -25 5 -25 26 l0 26 -27 -18 c-16 -9
-52 -35 -81 -56 l-53 -40 78 -54 c68 -48 78 -52 81 -35 3 20 28 35 43 25 5 -3
9 -32 9 -65 l0 -59 80 0 79 0 3 63 c3 59 4 62 30 65 25 3 31 -3 60 -62 l32
-66 93 0 93 0 -45 70 c-25 39 -45 73 -45 76 0 3 15 23 33 46 30 37 32 45 32
117 0 63 -4 81 -22 107 -42 58 -79 69 -260 72 l-163 3 0 -120z m263 -10 c32
-13 43 -55 22 -88 -14 -21 -22 -24 -68 -21 l-52 3 -3 44 c-2 24 -1 50 2 57 6
16 62 19 99 5z"/>
</g>
</svg>
