<svg xmlns="http://www.w3.org/2000/svg" viewBox="0 0 500 500" style="enable-background:new 0 0 500 500" xml:space="preserve"><path d="M249.6 0c-1.3 0-2.6.2-3.9.6L18.2 79.8c-4.8 1.7-7.8 6.5-7.2 11.6l35.9 294.8c.4 3.5 2.5 6.6 5.6 8.2l191.8 104.3c3.3 1.8 7.2 1.8 10.4 0L447.5 393c3.1-1.7 5.1-4.7 5.6-8.2L489 90c.6-5.1-2.4-10-7.3-11.6L252.7.6c-1-.4-2-.6-3.1-.6zm-.3 22.4 217.1 73.7-34.2 280.5-182.7 100.1L67.8 378 33.6 97.4l215.7-75zm1.1 21.1c-4.4-.1-8.4 2.3-10.2 6.3L98.9 354.1c-2.5 5.4-.2 11.9 5.3 14.4 1.4.7 3 1 4.6 1H157c4.2 0 8.1-2.5 9.8-6.3l27.3-58.8h111.8l27.3 58.8c1.8 3.8 5.6 6.3 9.9 6.3h48.2c6 0 10.9-4.9 10.9-10.9 0-1.6-.3-3.1-1-4.6L259.9 49.8c-1.8-3.7-5.4-6.2-9.5-6.3zm-.4 36.6 124.3 267.7H350L322.7 289c-1.8-3.8-5.6-6.3-9.8-6.3H187.2c-4.2 0-8.1 2.4-9.9 6.3L150 347.8h-24.2L250 80.1zm.4 66.6c-4.4-.2-8.5 2.3-10.3 6.3l-42.7 92.5c-2.5 5.5-.1 11.9 5.3 14.4 1.4.7 3 1 4.5 1h85.3c6 0 10.9-4.9 10.9-10.9 0-1.6-.3-3.1-1-4.5L259.7 153c-1.5-3.7-5.2-6.1-9.3-6.3zm-.4 36.9 25.7 55.7h-51.4l25.7-55.7z"/></svg>