<svg xmlns="http://www.w3.org/2000/svg" viewBox="0 0 512 512" style="enable-background:new 0 0 512 512" xml:space="preserve"><path d="M0 0v512h512V0H0zm46.5 46.5h418.9v418.9H46.5V46.5zm93.1 69.9v279c138 0 165.6 1.9 191.5-5.8 15.1-4.7 56.6-19.5 56.6-71.9 0-23.3-7-62.6-52.6-72.4v-.7h-8.6c23.3-10.5 37.9-30.3 37.9-59.3 0-7.4 2.1-68.9-79.4-68.9H139.6zm46.6 46.5h93.1c35.1 0 38.5 19.9 38.5 34.7 0 36.2-37.8 35.1-38.5 35.1h-93.1v-69.8zm0 116.4H297c43.3 0 44.1 27.4 44.1 34.4 0 36.3-37.5 35.4-42 35.4H186.2v-69.8z"/></svg>