<svg xmlns="http://www.w3.org/2000/svg" viewBox="0 0 500 500" style="enable-background:new 0 0 500 500" xml:space="preserve"><path d="M250 0c-7.8 0-15.5 2-22.5 5.9l-183 102.8c-13.9 7.9-22.7 22.5-22.7 38.4v205.7c0 15.9 8.8 30.6 22.7 38.4L227.6 494c13.9 7.9 31 7.9 44.9 0l183.1-102.8c14-7.9 22.7-22.5 22.7-38.4V147.1c0-15.9-8.8-30.5-22.7-38.4L272.5 5.9C265.5 2 257.8 0 250 0zm0 21.7c4.1 0 8.2 1 11.8 3.1l183.1 102.9c7.3 4.1 11.6 11.5 11.6 19.4v205.7c0 7.9-4.3 15.3-11.6 19.4l-183 102.9c-7.3 4.1-16.4 4.1-23.7 0l-183-102.9c-7.3-4.1-11.6-11.5-11.6-19.4V147.1c0-7.9 4.3-15.3 11.6-19.4l183-102.9c3.6-2 7.7-3.1 11.8-3.1zm0 87c-77.8 0-141.3 63.5-141.3 141.3S172.2 391.3 250 391.3c44.5 0 85.7-20.7 112.4-55.8l7.4-9.8-65.8-38.2-5.9 6.5c-12.3 13.4-29.7 21.2-48.1 21.2-36 0-65.2-29.2-65.2-65.2s29.2-65.2 65.2-65.2c18.4 0 35.8 7.8 48.1 21.2l5.9 6.5 65.8-38.1-7.4-9.8c-26.7-35.2-67.9-55.9-112.4-55.9zm0 21.7c33.4 0 64 14.3 86.4 38.2l-29.8 17.2C290.9 172.1 271.3 163 250 163c-47.8 0-87 39.1-87 87s39.1 87 87 87c21.3 0 40.8-9 56.6-22.8l29.8 17.2c-22.4 23.9-52.9 38.2-86.4 38.2-66 0-119.6-53.5-119.6-119.6S184 130.4 250 130.4zm108.7 65.2v21.7H337V239h21.7v21.7H337v21.7h21.7v21.7h21.7v-21.7h21.7v21.7h21.7v-21.7h21.7v-21.7h-21.7V239h21.7v-21.7h-21.7v-21.7h-21.7v21.7h-21.7v-21.7h-21.7zm21.7 43.5h21.7v21.7h-21.7v-21.7z"/></svg>