<svg xmlns="http://www.w3.org/2000/svg" viewBox="0 0 500 500" style="enable-background:new 0 0 500 500" xml:space="preserve"><path d="M390.4 22.3c-4.7 0-9 3-10.5 7.5l-53.9 166H172.7l-53.9-166c-1.4-4.4-5.5-7.4-10.1-7.5-4.6-.1-8.8 2.7-10.4 7l-65 173.4-.1.1L.7 289.6c-1.7 4.6-.2 9.7 3.8 12.6l238.4 173.4v.1c.1.1.3.2.4.3.2.1.3.2.5.3h.2s.1.1.2.1c0 0 .1.1.2.1.2.1.5.2.7.3.3.1.5.2.7.3h.1c.2 0 .3.1.6.2h.3c.2.1.4.1.6.2.3 0 .6.1.8.1h1.3c.4 0 .8 0 1.2-.1h1c.1 0 .2 0 .3-.1.2 0 .3-.1.4-.1H252.7c.2-.1.4-.2.6-.2l.6-.3h.2c.1 0 .2-.1.3-.1.3-.1.5-.3.7-.4.1 0 .1-.1.2-.1h.1c.2-.1.3-.2.5-.3l.1-.1 238.4-173.3c3.9-2.9 5.5-8 3.8-12.6l-32.4-86.4c0-.1-.1-.2-.1-.3L400.5 29.3c-1.6-4.1-5.6-6.9-10.1-7zM107.7 66l42.2 129.8H59L107.7 66zM391 66l48.7 129.8h-90.9L391 66zM65.8 217.5h91.1l63.5 195.3L65.8 217.5zm113.9 0H319l-69.6 214.3-69.7-214.3zm162.1 0H433L278.3 412.8l63.5-195.3zm-295 10.9 145 183.2L23.9 289.5l22.9-61.1zm405.2 0 22.9 61.1L307 411.6l145-183.2z"/></svg>