<svg xmlns="http://www.w3.org/2000/svg" viewBox="0 0 500 500" style="enable-background:new 0 0 500 500" xml:space="preserve"><path d="M149 22c-17.1 0-33 9.4-41.4 24.4L6.9 225.9c-8.4 15-8.4 33.2 0 48.2l100.8 179.5c8.4 15 24.3 24.4 41.4 24.4h202.2c17.1 0 33-9.4 41.4-24.4l100.8-179.5c8.4-15 8.4-33.2 0-48.2L392.6 46.4c-8.4-15-24.3-24.4-41.4-24.4H149zm0 21.7h202.2c9.2 0 17.7 4.9 22.4 13.2l29.2 51.9H168.7l-3.1 5.4-65.8 114-35.3-61.1 62.1-110.3c4.7-8.2 13.3-13.1 22.4-13.1zm32.2 86.9H319L388.2 250l-39 67.5-30.2 51.9H181.2L168.6 348l-28.2-48.9L112 250l69.2-119.4zm162.9 0H415l59.7 105.9c4.7 8.4 4.7 18.8 0 27.1L373.6 443.1c-4.7 8.4-13.2 13.2-22.4 13.2h-57l37.3-65.1 3.1-5.4 75.3-130.3 3.1-5.4-3.1-5.4-65.8-114.1zm-94 54.3c-35.8 0-65.1 29.3-65.1 65.1s29.3 65.1 65.1 65.1 65.1-29.3 65.1-65.1-29.2-65.1-65.1-65.1zM52 189.3 87.3 250l3.1 5.4L150 358.9l15.6 26.8 3.1 5.4h137.8l-37.7 65.1H149c-9.2 0-17.7-4.9-22.4-13.2L25.5 263.6c-4.7-8.4-4.7-18.8 0-27.1L52 189.3zm198.1 17.3c24.1 0 43.4 19.3 43.4 43.4s-19.3 43.4-43.4 43.4-43.4-19.3-43.4-43.4 19.3-43.4 43.4-43.4z"/></svg>