<svg xmlns="http://www.w3.org/2000/svg" viewBox="0 0 512 512" style="enable-background:new 0 0 512 512" xml:space="preserve"><path d="M361 0c-.7 0-1.2.2-1.6.6L296 75.9l-12.9 44.5c-8.8-.3-17.9-.4-27.2-.4-65.9 0-119.4 7-119.4 15.6 0 20.7 238.8 20.7 238.8 0 0-6.4-28.6-11.8-69.8-14.4l10.2-36.6L375 13.3l.1-.1c1.3-1.4-1.3-5.5-5.5-9.2-3.1-2.7-6.5-4.1-8.6-4zm-82.8 137.8-.2.7c-.1.1-.1.2-.1.3 0 1.3 5.2 2.3 11.5 2.3s11.5-1.1 11.5-2.3l.2-.8c1.7.6 2.6 1.3 2.6 2.1 0 2.1-6.4 3.8-14.4 3.7-7.7 0-14.2-1.6-14.2-3.6 0-1 1.3-1.8 3.1-2.4zm95.8 5.9c-31.6 16.8-204.2 17-235.9.2l14 123.4c6.1-19.7 21.5-46.2 41.3-54.3 6.5-2.7 13.1-2.6 19.3.9 5.4 3 9.9 9.1 10.4 11.6 1.2 6.4-2.1 8.9-4.6 8.9-3.1 0-5.5-4.5-7-7.2-4.2-7.2-10.6-7.5-17.5-2.8-7.1 4.9-13.3 13.2-17.7 20.4-5.3 8.7-9.7 18.2-12.4 27.7-1.6 5.5-3 14.3-.6 19.6 1 2.2 2.6 3.5 5.1 3.5 5.2 0 12.7-6.5 16.3-9.9 4.6-4.4 10.6-11.3 12.9-15.7l5.4-15.2c2.7-6.7 10.2-5.5 10.2 0 0 10-3.8 13.4-10.3 34.1-6 19.2-7.9 25.4-7.9 25.4-.7 2.7-3.5 7.4-6.5 7.4-1.2 0-2.2-.4-2.7-1.2-1-1.4-.9-5.2-.8-6.2.2-3.1 6.5-21.8 7.5-24.8-2.1 2.2-4.2 4.3-6.6 6.5-5.6 5-14.6 11.6-22.2 11.6-3.5 0-5.8-.9-7.9-2.4l7.8 78.3c2.1 4.9 40.5 16.8 91.1 16.8 50.7 0 89.1-12 91.1-16.8l11.3-93c-5.9 5.1-12.7 11.4-20.2 14.6-5.6 2.3-18 3.7-18-5.6 0-5.1 9.4-14.5 14.9-21.1 1.5-1.7 4.8-5.8 4.8-8 0-2.9-6.2-2.2-12.1 2.4-3.3 2.7-6.4 6.2-9 9.6-4.4 5.9-6.8 11-8.8 15.2-6.4 14-4.2 8.5-9.4 21.6-5.2 13.1-4.3 11.6-5.4 13.8-.9 1.9-2.3 3.5-4.1 4.4-2 1-4.6.9-6.3-.3-.9-.6-1.4-1.9-1.4-3.6 0-.9.1-1.8.3-2.7 1.6-6 8.1-17.8 15.5-33.7 1.7-3.6 1-2.6.8-2.3-6.4 5.9-11.3 8.8-14.9 10.3-6 2.6-13.4 2.6-15-4-.1-.4-.1-.8-.2-1.2-12.2 9-25.1 11.5-20.6-8-4.7 8.1-13 14.7-23.2 14.7-4.2 0-7.3-1.4-8.9-5-2.4-5.4 1.3-14.7 4.7-23.4 1.8-4.4 4.2-9.7 7.4-15.9 1.7-3.3 4.3-5.3 7.8-4.4.6.2 1.2.4 1.7.7 2.7 1.8 1.6 4.4.3 7.1-3.9 7.4-7.3 12.8-9.6 20.5-.9 3.2-2.1 8.9 1.5 8.9 2.5 0 4.8-.8 7.1-2.4 4.7-3.3 8.6-8.4 11.5-13.3 2.1-3.5 4.6-8.2 5.8-12.1.5-1.7 1.1-3.2 1.9-4.7 1.1-2.5 2.7-5 5.4-5 1.3 0 2.5.5 3.3 1.5 1.8 2.2 1.4 4.4.4 6.8-2.1 5.5-4.8 10.4-7.1 16.4-1.3 3.4-2.8 7.9-2.8 11.5 0 3.3 3.8 2.5 7 1.2 2.5-1.1 5-2.7 7-4.4 1.2-4.8.9-3.7 27.3-67.1 1.3-3.2 3.8-4.6 6.3-4.6 1.2 0 2.3.4 3.3 1.1 1.8 1.3 1.8 4 1.1 6.1-.7 1.9-.6 1.3-4.7 10.3-5.4 11.9-8.9 20.5-13.6 31.4-2 4.5-7.9 18.6-9 21.9-.6 2.2-1.4 5.7 1 5.7 5.6 0 19.9-12.9 23.9-16.7.2-.3.5-.4.9-.6.6-1.9 1.2-3.6 1.7-5.4 1.5-3.7 2.8-8.1 5.5-11.1.8-1 1.7-1.6 2.8-1.6 2.9 0 4.3 1.2 4.3 3.9 0 1.1-.7 5-1.1 6.1 1.5-1.5 3-2.9 4.6-4.4 15.5-13.7 26.5-6.7 26.5.2 0 7.3-9.2 17.4-14.2 23-1.7 1.9-5.1 5.3-5.2 6.3 0 1.3.9 1.8 2.3 1.8 2.1 0 6.6-3.5 8.3-4.6 5.2-3.8 12.2-9.7 17.1-13.9L374 143.7zM169.5 393.1l15.4 25 6 78.1c0 8.8 29.2 15.8 65.2 15.8s65.2-7.1 65.2-15.8l4.8-78.9 14.5-24.2c-41 16.4-128.6 17-171.1 0z"/></svg>