<svg version="1.0" xmlns="http://www.w3.org/2000/svg" width="93.333" height="93.333" viewBox="0 0 70 70"><path d="M22 21.9V34h-2.5c-2 0-2.5-.5-2.5-2.6v-2.6l-2.7 1.8c-1.6.9-5.2 3.5-8.1 5.6l-5.3 4 7.8 5.4c6.8 4.8 7.8 5.2 8.1 3.5.3-2 2.8-3.5 4.3-2.5.5.3.9 3.2.9 6.5V59h15.9l.3-6.3c.3-5.9.4-6.2 3-6.5 2.5-.3 3.1.3 6 6.2l3.2 6.6H69l-4.5-7C62 48.1 60 44.7 60 44.4c0-.3 1.5-2.3 3.3-4.6 3-3.7 3.2-4.5 3.2-11.7 0-6.3-.4-8.1-2.2-10.7-4.2-5.8-7.9-6.9-26-7.2L22 9.9v12zm26.3 1c3.2 1.3 4.3 5.5 2.2 8.8-1.4 2.1-2.2 2.4-6.8 2.1l-5.2-.3-.3-4.4c-.2-2.4-.1-5 .2-5.7.6-1.6 6.2-1.9 9.9-.5z"/></svg>